<mxfile host="app.diagrams.net" agent="Mozilla/5.0 (Windows NT 10.0; Win64; x64) AppleWebKit/537.36 (KHTML, like Gecko) Chrome/131.0.0.0 Safari/537.36 Edg/131.0.0.0" version="24.7.8">
  <diagram name="Страница — 1" id="3aKKyaPBFzIDaTSwLnMW">
    <mxGraphModel dx="1367" dy="1760" grid="1" gridSize="10" guides="1" tooltips="1" connect="1" arrows="1" fold="1" page="1" pageScale="1" pageWidth="827" pageHeight="1169" math="0" shadow="0">
      <root>
        <mxCell id="0" />
        <mxCell id="1" parent="0" />
        <mxCell id="QzH9H0PnSBYq-0xR4QBt-53" style="edgeStyle=orthogonalEdgeStyle;rounded=0;orthogonalLoop=1;jettySize=auto;html=1;exitX=0.75;exitY=1;exitDx=0;exitDy=0;entryX=0.75;entryY=0;entryDx=0;entryDy=0;" edge="1" parent="1" source="QzH9H0PnSBYq-0xR4QBt-13" target="QzH9H0PnSBYq-0xR4QBt-14">
          <mxGeometry relative="1" as="geometry" />
        </mxCell>
        <mxCell id="QzH9H0PnSBYq-0xR4QBt-55" style="edgeStyle=orthogonalEdgeStyle;rounded=0;orthogonalLoop=1;jettySize=auto;html=1;exitX=0;exitY=0.5;exitDx=0;exitDy=0;" edge="1" parent="1" source="QzH9H0PnSBYq-0xR4QBt-13">
          <mxGeometry relative="1" as="geometry">
            <mxPoint x="190" y="-110" as="targetPoint" />
          </mxGeometry>
        </mxCell>
        <mxCell id="QzH9H0PnSBYq-0xR4QBt-13" value="Azure SQL Database" style="rounded=0;whiteSpace=wrap;html=1;" vertex="1" parent="1">
          <mxGeometry x="250" y="-310" width="120" height="60" as="geometry" />
        </mxCell>
        <mxCell id="QzH9H0PnSBYq-0xR4QBt-52" style="edgeStyle=orthogonalEdgeStyle;rounded=0;orthogonalLoop=1;jettySize=auto;html=1;exitX=0.25;exitY=0;exitDx=0;exitDy=0;entryX=0.25;entryY=1;entryDx=0;entryDy=0;" edge="1" parent="1" source="QzH9H0PnSBYq-0xR4QBt-14" target="QzH9H0PnSBYq-0xR4QBt-13">
          <mxGeometry relative="1" as="geometry" />
        </mxCell>
        <mxCell id="QzH9H0PnSBYq-0xR4QBt-54" style="edgeStyle=orthogonalEdgeStyle;rounded=0;orthogonalLoop=1;jettySize=auto;html=1;exitX=0;exitY=0.5;exitDx=0;exitDy=0;entryX=0.5;entryY=0;entryDx=0;entryDy=0;" edge="1" parent="1" source="QzH9H0PnSBYq-0xR4QBt-14" target="QzH9H0PnSBYq-0xR4QBt-15">
          <mxGeometry relative="1" as="geometry" />
        </mxCell>
        <mxCell id="QzH9H0PnSBYq-0xR4QBt-14" value="Azure BLOB Storage" style="rounded=0;whiteSpace=wrap;html=1;" vertex="1" parent="1">
          <mxGeometry x="250" y="-210" width="120" height="60" as="geometry" />
        </mxCell>
        <mxCell id="QzH9H0PnSBYq-0xR4QBt-15" value="Azure CDN" style="rounded=0;whiteSpace=wrap;html=1;" vertex="1" parent="1">
          <mxGeometry x="130" y="-110" width="120" height="60" as="geometry" />
        </mxCell>
        <mxCell id="QzH9H0PnSBYq-0xR4QBt-48" style="edgeStyle=orthogonalEdgeStyle;rounded=0;orthogonalLoop=1;jettySize=auto;html=1;exitX=0;exitY=0.5;exitDx=0;exitDy=0;entryX=1;entryY=0.5;entryDx=0;entryDy=0;" edge="1" parent="1" source="QzH9H0PnSBYq-0xR4QBt-16" target="QzH9H0PnSBYq-0xR4QBt-14">
          <mxGeometry relative="1" as="geometry" />
        </mxCell>
        <mxCell id="QzH9H0PnSBYq-0xR4QBt-62" value="загрузка контента" style="edgeLabel;html=1;align=center;verticalAlign=middle;resizable=0;points=[];" vertex="1" connectable="0" parent="QzH9H0PnSBYq-0xR4QBt-48">
          <mxGeometry x="-0.0491" relative="1" as="geometry">
            <mxPoint as="offset" />
          </mxGeometry>
        </mxCell>
        <mxCell id="QzH9H0PnSBYq-0xR4QBt-49" style="edgeStyle=orthogonalEdgeStyle;rounded=0;orthogonalLoop=1;jettySize=auto;html=1;exitX=0;exitY=0.5;exitDx=0;exitDy=0;entryX=1;entryY=0.5;entryDx=0;entryDy=0;" edge="1" parent="1" source="QzH9H0PnSBYq-0xR4QBt-16" target="QzH9H0PnSBYq-0xR4QBt-13">
          <mxGeometry relative="1" as="geometry" />
        </mxCell>
        <mxCell id="QzH9H0PnSBYq-0xR4QBt-16" value="Entra ID" style="rounded=0;whiteSpace=wrap;html=1;" vertex="1" parent="1">
          <mxGeometry x="420" y="-310" width="120" height="60" as="geometry" />
        </mxCell>
        <mxCell id="QzH9H0PnSBYq-0xR4QBt-31" style="edgeStyle=orthogonalEdgeStyle;rounded=0;orthogonalLoop=1;jettySize=auto;html=1;exitX=0.5;exitY=0;exitDx=0;exitDy=0;entryX=0.5;entryY=1;entryDx=0;entryDy=0;endArrow=open;endFill=0;startArrow=classic;startFill=1;" edge="1" parent="1" target="QzH9H0PnSBYq-0xR4QBt-16">
          <mxGeometry relative="1" as="geometry">
            <mxPoint x="480" y="-110" as="sourcePoint" />
          </mxGeometry>
        </mxCell>
        <mxCell id="QzH9H0PnSBYq-0xR4QBt-32" value="аутентификация" style="edgeLabel;html=1;align=center;verticalAlign=middle;resizable=0;points=[];" vertex="1" connectable="0" parent="QzH9H0PnSBYq-0xR4QBt-31">
          <mxGeometry x="0.0364" y="3" relative="1" as="geometry">
            <mxPoint as="offset" />
          </mxGeometry>
        </mxCell>
        <mxCell id="QzH9H0PnSBYq-0xR4QBt-65" style="edgeStyle=orthogonalEdgeStyle;rounded=0;orthogonalLoop=1;jettySize=auto;html=1;exitX=0.5;exitY=0.5;exitDx=0;exitDy=0;exitPerimeter=0;entryX=0;entryY=0.5;entryDx=0;entryDy=0;" edge="1" parent="1" source="QzH9H0PnSBYq-0xR4QBt-28" target="QzH9H0PnSBYq-0xR4QBt-63">
          <mxGeometry relative="1" as="geometry" />
        </mxCell>
        <mxCell id="QzH9H0PnSBYq-0xR4QBt-66" value="подключение" style="edgeLabel;html=1;align=center;verticalAlign=middle;resizable=0;points=[];" vertex="1" connectable="0" parent="QzH9H0PnSBYq-0xR4QBt-65">
          <mxGeometry x="0.1076" y="1" relative="1" as="geometry">
            <mxPoint x="-1" as="offset" />
          </mxGeometry>
        </mxCell>
        <mxCell id="QzH9H0PnSBYq-0xR4QBt-28" value="User" style="shape=umlActor;verticalLabelPosition=bottom;verticalAlign=top;html=1;outlineConnect=0;" vertex="1" parent="1">
          <mxGeometry x="300" y="110" width="30" height="60" as="geometry" />
        </mxCell>
        <mxCell id="QzH9H0PnSBYq-0xR4QBt-41" value="App Service" style="ellipse;shape=cloud;whiteSpace=wrap;html=1;" vertex="1" parent="1">
          <mxGeometry x="420" y="-120" width="120" height="80" as="geometry" />
        </mxCell>
        <mxCell id="QzH9H0PnSBYq-0xR4QBt-42" style="edgeStyle=orthogonalEdgeStyle;rounded=0;orthogonalLoop=1;jettySize=auto;html=1;exitX=0.5;exitY=0;exitDx=0;exitDy=0;entryX=0.55;entryY=0.95;entryDx=0;entryDy=0;entryPerimeter=0;startArrow=classic;startFill=1;" edge="1" parent="1" source="QzH9H0PnSBYq-0xR4QBt-63" target="QzH9H0PnSBYq-0xR4QBt-41">
          <mxGeometry relative="1" as="geometry" />
        </mxCell>
        <mxCell id="QzH9H0PnSBYq-0xR4QBt-64" value="API" style="edgeLabel;html=1;align=center;verticalAlign=middle;resizable=0;points=[];" vertex="1" connectable="0" parent="QzH9H0PnSBYq-0xR4QBt-42">
          <mxGeometry x="0.692" relative="1" as="geometry">
            <mxPoint x="4" y="50" as="offset" />
          </mxGeometry>
        </mxCell>
        <mxCell id="QzH9H0PnSBYq-0xR4QBt-57" value="Ускоренная доставка и кеширование" style="shape=note2;boundedLbl=1;whiteSpace=wrap;html=1;size=25;verticalAlign=top;align=center;" vertex="1" parent="1">
          <mxGeometry x="-20" y="-330" width="140" height="150" as="geometry" />
        </mxCell>
        <mxCell id="QzH9H0PnSBYq-0xR4QBt-58" value="" style="endArrow=none;dashed=1;html=1;rounded=0;entryX=0.5;entryY=1;entryDx=0;entryDy=0;entryPerimeter=0;exitX=0;exitY=0.5;exitDx=0;exitDy=0;" edge="1" parent="1" source="QzH9H0PnSBYq-0xR4QBt-15" target="QzH9H0PnSBYq-0xR4QBt-57">
          <mxGeometry width="50" height="50" relative="1" as="geometry">
            <mxPoint x="50" y="-50" as="sourcePoint" />
            <mxPoint x="100" y="-100" as="targetPoint" />
          </mxGeometry>
        </mxCell>
        <mxCell id="QzH9H0PnSBYq-0xR4QBt-59" style="edgeStyle=orthogonalEdgeStyle;rounded=0;orthogonalLoop=1;jettySize=auto;html=1;entryX=0.07;entryY=0.4;entryDx=0;entryDy=0;entryPerimeter=0;" edge="1" parent="1" source="QzH9H0PnSBYq-0xR4QBt-15" target="QzH9H0PnSBYq-0xR4QBt-41">
          <mxGeometry relative="1" as="geometry" />
        </mxCell>
        <mxCell id="QzH9H0PnSBYq-0xR4QBt-63" value="&#xa; Azure API Management&#xa;&#xa;" style="rounded=0;whiteSpace=wrap;html=1;" vertex="1" parent="1">
          <mxGeometry x="430" y="110" width="120" height="60" as="geometry" />
        </mxCell>
      </root>
    </mxGraphModel>
  </diagram>
</mxfile>
